<svg version="1.1" viewBox="0.0 0.0 841.0 310.0" fill="none" stroke="none" stroke-linecap="square" stroke-miterlimit="10" xmlns:xlink="http://www.w3.org/1999/xlink" xmlns="http://www.w3.org/2000/svg"><clipPath id="p.0"><path d="m0 0l841.0 0l0 310.0l-841.0 0l0 -310.0z" clip-rule="nonzero"/></clipPath><g clip-path="url(#p.0)"><path fill="#000000" fill-opacity="0.0" d="m0 0l841.0 0l0 310.0l-841.0 0z" fill-rule="evenodd"/><path fill="#ffffff" d="m0.007874016 -0.015748031l841.0079 0l0 309.98425l-841.0079 0z" fill-rule="evenodd"/><path fill="#000000" fill-opacity="0.0" d="m491.9344 213.07086l277.25983 -0.50393677" fill-rule="evenodd"/><path stroke="#000000" stroke-width="1.0" stroke-linejoin="round" stroke-linecap="butt" d="m491.9344 213.07086l271.25983 -0.49302673" fill-rule="evenodd"/><path fill="#000000" stroke="#000000" stroke-width="1.0" stroke-linecap="butt" d="m763.19727 214.22957l4.535034 -1.6599884l-4.5410767 -1.6434784z" fill-rule="evenodd"/><path fill="#000000" fill-opacity="0.0" d="m491.9344 250.83727l273.00787 -164.0" fill-rule="evenodd"/><path stroke="#000000" stroke-width="1.0" stroke-linejoin="round" stroke-linecap="butt" d="m491.9344 250.83727l267.8645 -160.91031" fill-rule="evenodd"/><path fill="#000000" stroke="#000000" stroke-width="1.0" stroke-linecap="butt" d="m760.6495 91.34285l3.0396118 -3.752777l-4.7407227 0.92097473z" fill-rule="evenodd"/><path fill="#d9d2e9" d="m550.33856 212.8189l0 0c0 -2.7744598 2.305603 -5.0236206 5.149597 -5.0236206l0 0c1.3657837 0 2.6755981 0.5292816 3.6413574 1.4713898c0.9657593 0.94210815 1.5083008 2.2198944 1.5083008 3.5522308l0 0c0 2.774475 -2.305603 5.0236206 -5.149658 5.0236206l0 0c-2.8439941 0 -5.149597 -2.2491455 -5.149597 -5.0236206z" fill-rule="evenodd"/><path stroke="#000000" stroke-width="1.0" stroke-linejoin="round" stroke-linecap="butt" d="m550.33856 212.8189l0 0c0 -2.7744598 2.305603 -5.0236206 5.149597 -5.0236206l0 0c1.3657837 0 2.6755981 0.5292816 3.6413574 1.4713898c0.9657593 0.94210815 1.5083008 2.2198944 1.5083008 3.5522308l0 0c0 2.774475 -2.305603 5.0236206 -5.149658 5.0236206l0 0c-2.8439941 0 -5.149597 -2.2491455 -5.149597 -5.0236206z" fill-rule="evenodd"/><path fill="#d9d2e9" d="m697.33856 123.8189l0 0c0 -2.774475 2.305603 -5.023628 5.149597 -5.023628l0 0c1.3657837 0 2.6755981 0.529274 3.6413574 1.4713898c0.9657593 0.94210815 1.5083008 2.2198868 1.5083008 3.5522385l0 0c0 2.7744675 -2.305603 5.023613 -5.149658 5.023613l0 0c-2.8439941 0 -5.149597 -2.2491455 -5.149597 -5.023613z" fill-rule="evenodd"/><path stroke="#000000" stroke-width="1.0" stroke-linejoin="round" stroke-linecap="butt" d="m697.33856 123.8189l0 0c0 -2.774475 2.305603 -5.023628 5.149597 -5.023628l0 0c1.3657837 0 2.6755981 0.529274 3.6413574 1.4713898c0.9657593 0.94210815 1.5083008 2.2198868 1.5083008 3.5522385l0 0c0 2.7744675 -2.305603 5.023613 -5.149658 5.023613l0 0c-2.8439941 0 -5.149597 -2.2491455 -5.149597 -5.023613z" fill-rule="evenodd"/><path fill="#d9d2e9" d="m697.33856 212.8189l0 0c0 -2.7744598 2.305603 -5.0236206 5.149597 -5.0236206l0 0c1.3657837 0 2.6755981 0.5292816 3.6413574 1.4713898c0.9657593 0.94210815 1.5083008 2.2198944 1.5083008 3.5522308l0 0c0 2.774475 -2.305603 5.0236206 -5.149658 5.0236206l0 0c-2.8439941 0 -5.149597 -2.2491455 -5.149597 -5.0236206z" fill-rule="evenodd"/><path stroke="#000000" stroke-width="1.0" stroke-linejoin="round" stroke-linecap="butt" d="m697.33856 212.8189l0 0c0 -2.7744598 2.305603 -5.0236206 5.149597 -5.0236206l0 0c1.3657837 0 2.6755981 0.5292816 3.6413574 1.4713898c0.9657593 0.94210815 1.5083008 2.2198944 1.5083008 3.5522308l0 0c0 2.774475 -2.305603 5.0236206 -5.149658 5.0236206l0 0c-2.8439941 0 -5.149597 -2.2491455 -5.149597 -5.0236206z" fill-rule="evenodd"/><path fill="#000000" fill-opacity="0.0" d="m540.0236 221.5853l30.929138 0l0 19.527557l-30.929138 0z" fill-rule="evenodd"/><path fill="#000000" d="m549.23517 238.26907l5.125 -13.359375l1.90625 0l5.46875 13.359375l-2.015625 0l-1.546875 -4.046875l-5.59375 0l-1.46875 4.046875l-1.875 0zm3.859375 -5.484375l4.53125 0l-1.40625 -3.703125q-0.625 -1.6875 -0.9375 -2.765625q-0.265625 1.28125 -0.71875 2.546875l-1.46875 3.921875z" fill-rule="nonzero"/><path fill="#000000" fill-opacity="0.0" d="m687.0236 221.5853l30.929138 0l0 19.527557l-30.929138 0z" fill-rule="evenodd"/><path fill="#000000" d="m697.6258 238.26907l0 -13.359375l5.015625 0q1.53125 0 2.453125 0.40625q0.921875 0.40625 1.4375 1.25q0.53125 0.84375 0.53125 1.765625q0 0.859375 -0.46875 1.625q-0.453125 0.75 -1.390625 1.203125q1.203125 0.359375 1.859375 1.21875q0.65625 0.859375 0.65625 2.015625q0 0.9375 -0.40625 1.75q-0.390625 0.796875 -0.984375 1.234375q-0.578125 0.4375 -1.453125 0.671875q-0.875 0.21875 -2.15625 0.21875l-5.09375 0zm1.78125 -7.75l2.875 0q1.1875 0 1.6875 -0.140625q0.671875 -0.203125 1.015625 -0.671875q0.34375 -0.46875 0.34375 -1.171875q0 -0.65625 -0.328125 -1.15625q-0.3125 -0.515625 -0.90625 -0.703125q-0.59375 -0.1875 -2.03125 -0.1875l-2.65625 0l0 4.03125zm0 6.171875l3.3125 0q0.859375 0 1.203125 -0.0625q0.609375 -0.109375 1.015625 -0.359375q0.421875 -0.265625 0.6875 -0.75q0.265625 -0.484375 0.265625 -1.125q0 -0.75 -0.390625 -1.296875q-0.375 -0.546875 -1.0625 -0.765625q-0.671875 -0.234375 -1.953125 -0.234375l-3.078125 0l0 4.59375z" fill-rule="nonzero"/><path fill="#000000" fill-opacity="0.0" d="m687.0236 131.83464l30.929138 0l0 19.527557l-30.929138 0z" fill-rule="evenodd"/><path fill="#000000" d="m706.9924 143.83092l1.765625 0.453125q-0.5625 2.171875 -2.0 3.328125q-1.4375 1.140625 -3.53125 1.140625q-2.15625 0 -3.515625 -0.875q-1.34375 -0.890625 -2.0625 -2.546875q-0.703125 -1.671875 -0.703125 -3.59375q0 -2.078125 0.796875 -3.625q0.796875 -1.5625 2.265625 -2.359375q1.484375 -0.8125 3.25 -0.8125q2.0 0 3.359375 1.015625q1.375 1.015625 1.90625 2.875l-1.734375 0.40625q-0.46875 -1.453125 -1.359375 -2.109375q-0.875 -0.671875 -2.203125 -0.671875q-1.546875 0 -2.578125 0.734375q-1.03125 0.734375 -1.453125 1.984375q-0.421875 1.234375 -0.421875 2.5625q0 1.703125 0.5 2.96875q0.5 1.265625 1.546875 1.90625q1.046875 0.625 2.265625 0.625q1.484375 0 2.515625 -0.859375q1.03125 -0.859375 1.390625 -2.546875z" fill-rule="nonzero"/><path fill="#000000" fill-opacity="0.0" d="m522.2756 183.02362l66.42523 0l0 19.527557l-66.42523 0z" fill-rule="evenodd"/><path fill="#000000" d="m539.6835 201.8349l0 -14.640625l3.09375 0l0 1.15625l-1.6875 0l0 12.3125l1.6875 0l0 1.171875l-3.09375 0zm4.4140625 -3.1875l0 -8.296875l1.265625 0l0 1.171875q0.90625 -1.359375 2.640625 -1.359375q0.75 0 1.375 0.265625q0.625 0.265625 0.9375 0.703125q0.3125 0.4375 0.4375 1.046875q0.078125 0.390625 0.078125 1.359375l0 5.109375l-1.40625 0l0 -5.046875q0 -0.859375 -0.171875 -1.28125q-0.15625 -0.4375 -0.578125 -0.6875q-0.40625 -0.25 -0.96875 -0.25q-0.90625 0 -1.5625 0.578125q-0.640625 0.5625 -0.640625 2.15625l0 4.53125l-1.40625 0zm14.335999 0l0 -1.21875q-0.96875 1.40625 -2.640625 1.40625q-0.734375 0 -1.375 -0.28125q-0.62506104 -0.28125 -0.93756104 -0.703125q-0.3125 -0.4375 -0.4375 -1.046875q-0.078125 -0.421875 -0.078125 -1.3125l0 -5.140625l1.406311 0l0 4.59375q0 1.109375 0.078125 1.484375q0.140625 0.5625 0.5625 0.875q0.4375 0.3125 1.0625 0.3125q0.640625 0 1.1875 -0.3125q0.5625 -0.328125 0.78125 -0.890625q0.234375 -0.5625 0.234375 -1.625l0 -4.4375l1.40625 0l0 8.296875l-1.25 0zm3.4296875 0l0 -11.453125l1.40625 0l0 11.453125l-1.40625 0zm3.5546875 0l0 -11.453125l1.40625 0l0 11.453125l-1.40625 0zm5.9296875 3.1875l-3.09375 0l0 -1.171875l1.6875 0l0 -12.3125l-1.6875 0l0 -1.15625l3.09375 0l0 14.640625z" fill-rule="nonzero"/><path fill="#000000" fill-opacity="0.0" d="m615.92914 93.02362l119.74805 0l0 19.527557l-119.74805 0z" fill-rule="evenodd"/><path fill="#000000" d="m634.2211 111.8349l0 -14.640625l3.09375 0l0 1.15625l-1.6875 0l0 12.3125l1.6875 0l0 1.171875l-3.09375 0zm7.5078125 -3.1875l0 -10.109375l-3.78125 0l0 -1.34375l9.078125 0l0 1.34375l-3.78125 0l0 10.109375l-1.515625 0zm6.6640625 0l0 -8.296875l1.265625 0l0 1.25q0.484375 -0.875 0.890625 -1.15625q0.40625 -0.28125 0.90625 -0.28125q0.703125 0 1.4375 0.453125l-0.484375 1.296875q-0.515625 -0.296875 -1.03125 -0.296875q-0.453125 0 -0.828125 0.28125q-0.359375 0.265625 -0.515625 0.765625q-0.234375 0.75 -0.234375 1.640625l0 4.34375l-1.40625 0zm5.34375 -9.84375l0 -1.609375l1.40625 0l0 1.609375l-1.40625 0zm0 9.84375l0 -8.296875l1.40625 0l0 8.296875l-1.40625 0zm3.5546875 3.1875l0 -11.484375l1.28125 0l0 1.078125q0.453125 -0.640625 1.015625 -0.953125q0.578125 -0.3125 1.390625 -0.3125q1.0625 0 1.875 0.546875q0.8125 0.546875 1.21875 1.546875q0.421875 0.984375 0.421875 2.171875q0 1.28125 -0.46875 2.296875q-0.453125 1.015625 -1.328125 1.5625q-0.859375 0.546875 -1.828125 0.546875q-0.703125 0 -1.265625 -0.296875q-0.546875 -0.296875 -0.90625 -0.75l0 4.046875l-1.40625 0zm1.265625 -7.296875q0 1.609375 0.640625 2.375q0.65625 0.765625 1.578125 0.765625q0.9375 0 1.609375 -0.796875q0.671875 -0.796875 0.671875 -2.453125q0 -1.59375 -0.65625 -2.375q-0.65625 -0.796875 -1.5625 -0.796875q-0.890625 0 -1.59375 0.84375q-0.6875 0.84375 -0.6875 2.4375zm12.5390625 4.109375l-1.40625 0l0 -8.96875q-0.515625 0.484375 -1.34375 0.96875q-0.8125 0.484375 -1.46875 0.734375l0 -1.359375q1.171875 -0.5625 2.046875 -1.34375q0.890625 -0.796875 1.265625 -1.53125l0.90625 0l0 11.5zm4.3515625 0l0 -1.609375l1.609375 0l0 1.609375q0 0.890625 -0.3125 1.421875q-0.3125 0.546875 -1.0 0.84375l-0.390625 -0.59375q0.453125 -0.203125 0.65625 -0.578125q0.21875 -0.375 0.234375 -1.09375l-0.796875 0zm7.4375 0l4.40625 -11.453125l1.640625 0l4.6875 11.453125l-1.734375 0l-1.328125 -3.46875l-4.796875 0l-1.25 3.46875l-1.625 0zm3.3125 -4.703125l3.890625 0l-1.203125 -3.171875q-0.546875 -1.453125 -0.8125 -2.375q-0.21875 1.09375 -0.609375 2.1875l-1.265625 3.359375zm8.8125 4.703125l0 -1.609375l1.609375 0l0 1.609375q0 0.890625 -0.3125 1.421875q-0.3125 0.546875 -1.0 0.84375l-0.390625 -0.59375q0.453125 -0.203125 0.65625 -0.578125q0.21875 -0.375 0.234375 -1.09375l-0.796875 0zm16.875 -4.015625l1.515625 0.375q-0.46875 1.875 -1.71875 2.859375q-1.234375 0.984375 -3.015625 0.984375q-1.859375 0 -3.015625 -0.75q-1.15625 -0.765625 -1.765625 -2.1875q-0.609375 -1.4375 -0.609375 -3.078125q0 -1.796875 0.6875 -3.125q0.6875 -1.328125 1.9375 -2.015625q1.265625 -0.703125 2.78125 -0.703125q1.71875 0 2.890625 0.875q1.171875 0.875 1.640625 2.46875l-1.5 0.34375q-0.390625 -1.25 -1.15625 -1.8125q-0.75 -0.578125 -1.90625 -0.578125q-1.3125 0 -2.203125 0.640625q-0.890625 0.625 -1.25 1.703125q-0.359375 1.0625 -0.359375 2.1875q0 1.46875 0.421875 2.5625q0.4375 1.078125 1.328125 1.625q0.90625 0.53125 1.953125 0.53125q1.265625 0 2.140625 -0.734375q0.890625 -0.734375 1.203125 -2.171875zm5.5546875 7.203125l-3.09375 0l0 -1.171875l1.6875 0l0 -12.3125l-1.6875 0l0 -1.15625l3.09375 0l0 14.640625z" fill-rule="nonzero"/><path fill="#000000" fill-opacity="0.0" d="m615.92914 183.02362l114.36218 0l0 19.527557l-114.36218 0z" fill-rule="evenodd"/><path fill="#000000" d="m631.9696 201.8349l0 -14.640625l3.09375 0l0 1.15625l-1.6875 0l0 12.3125l1.6875 0l0 1.171875l-3.09375 0zm7.5078125 -3.1875l0 -10.109375l-3.78125 0l0 -1.34375l9.078125 0l0 1.34375l-3.78125 0l0 10.109375l-1.515625 0zm6.6640625 0l0 -8.296875l1.265625 0l0 1.25q0.484375 -0.875 0.890625 -1.15625q0.40625 -0.28125 0.90625 -0.28125q0.703125 0 1.4375 0.453125l-0.484375 1.296875q-0.515625 -0.296875 -1.03125 -0.296875q-0.453125 0 -0.828125 0.28125q-0.359375 0.265625 -0.515625 0.765625q-0.234375 0.75 -0.234375 1.640625l0 4.34375l-1.40625 0zm5.34375 -9.84375l0 -1.609375l1.40625 0l0 1.609375l-1.40625 0zm0 9.84375l0 -8.296875l1.40625 0l0 8.296875l-1.40625 0zm3.5546875 3.1875l0 -11.484375l1.28125 0l0 1.078125q0.453125 -0.640625 1.015625 -0.953125q0.578125 -0.3125 1.390625 -0.3125q1.0625 0 1.875 0.546875q0.8125 0.546875 1.21875 1.546875q0.421875 0.984375 0.421875 2.171875q0 1.28125 -0.46875 2.296875q-0.453125 1.015625 -1.328125 1.5625q-0.859375 0.546875 -1.828125 0.546875q-0.703125 0 -1.265625 -0.296875q-0.546875 -0.296875 -0.90625 -0.75l0 4.046875l-1.40625 0zm1.265625 -7.296875q0 1.609375 0.640625 2.375q0.65625 0.765625 1.578125 0.765625q0.9375 0 1.609375 -0.796875q0.671875 -0.796875 0.671875 -2.453125q0 -1.59375 -0.65625 -2.375q-0.65625 -0.796875 -1.5625 -0.796875q-0.890625 0 -1.59375 0.84375q-0.6875 0.84375 -0.6875 2.4375zm14.6328125 2.75l0 1.359375l-7.578125 0q-0.015625 -0.515625 0.171875 -0.984375q0.28125 -0.765625 0.921875 -1.515625q0.640625 -0.75 1.84375 -1.734375q1.859375 -1.53125 2.515625 -2.421875q0.65625 -0.90625 0.65625 -1.703125q0 -0.828125 -0.59375 -1.40625q-0.59375 -0.578125 -1.5625 -0.578125q-1.015625 0 -1.625 0.609375q-0.609375 0.609375 -0.609375 1.6875l-1.453125 -0.140625q0.15625 -1.625 1.125 -2.46875q0.96875 -0.84375 2.59375 -0.84375q1.65625 0 2.609375 0.921875q0.96875 0.90625 0.96875 2.25q0 0.6875 -0.28125 1.359375q-0.28125 0.65625 -0.9375 1.390625q-0.65625 0.734375 -2.171875 2.015625q-1.265625 1.0625 -1.625 1.453125q-0.359375 0.375 -0.59375 0.75l5.625 0zm2.2578125 1.359375l0 -1.609375l1.609375 0l0 1.609375q0 0.890625 -0.3125 1.421875q-0.3125 0.546875 -1.0 0.84375l-0.390625 -0.59375q0.453125 -0.203125 0.65625 -0.578125q0.21875 -0.375 0.234375 -1.09375l-0.796875 0zm7.4375 0l4.40625 -11.453125l1.640625 0l4.6875 11.453125l-1.734375 0l-1.328125 -3.46875l-4.796875 0l-1.25 3.46875l-1.625 0zm3.3125 -4.703125l3.890625 0l-1.203125 -3.171875q-0.546875 -1.453125 -0.8125 -2.375q-0.21875 1.09375 -0.609375 2.1875l-1.265625 3.359375zm8.8125 4.703125l0 -1.609375l1.609375 0l0 1.609375q0 0.890625 -0.3125 1.421875q-0.3125 0.546875 -1.0 0.84375l-0.390625 -0.59375q0.453125 -0.203125 0.65625 -0.578125q0.21875 -0.375 0.234375 -1.09375l-0.796875 0zm8.640625 0l0 -11.453125l4.296875 0q1.3125 0 2.109375 0.34375q0.796875 0.34375 1.234375 1.078125q0.453125 0.71875 0.453125 1.5q0 0.734375 -0.40625 1.390625q-0.390625 0.640625 -1.1875 1.046875q1.03125 0.296875 1.59375 1.03125q0.5625 0.734375 0.5625 1.734375q0 0.8125 -0.34375 1.5q-0.34375 0.6875 -0.84375 1.0625q-0.5 0.375 -1.25 0.578125q-0.75 0.1875 -1.84375 0.1875l-4.375 0zm1.515625 -6.640625l2.484375 0q1.0 0 1.4375 -0.140625q0.578125 -0.171875 0.875 -0.5625q0.296875 -0.40625 0.296875 -1.0q0 -0.578125 -0.28125 -1.0q-0.265625 -0.4375 -0.78125 -0.59375q-0.5 -0.171875 -1.734375 -0.171875l-2.296875 0l0 3.46875zm0 5.28125l2.859375 0q0.734375 0 1.03125 -0.046875q0.515625 -0.09375 0.859375 -0.3125q0.359375 -0.21875 0.578125 -0.640625q0.234375 -0.421875 0.234375 -0.96875q0 -0.640625 -0.328125 -1.109375q-0.328125 -0.46875 -0.90625 -0.65625q-0.578125 -0.203125 -1.671875 -0.203125l-2.65625 0l0 3.9375zm11.390625 4.546875l-3.09375 0l0 -1.171875l1.6875 0l0 -12.3125l-1.6875 0l0 -1.15625l3.09375 0l0 14.640625z" fill-rule="nonzero"/><path fill="#000000" fill-opacity="0.0" d="m491.9344 33.02362l95.1496 0l0 19.527561l-95.1496 0z" fill-rule="evenodd"/><path fill="#000000" d="m504.7709 48.6474l0 -11.453125l5.078125 0q1.53125 0 2.3280945 0.3125q0.796875 0.296875 1.265625 1.078125q0.484375 0.78125 0.484375 1.734375q0 1.21875 -0.796875 2.0625q-0.78125 0.828125 -2.4374695 1.046875q0.609375 0.296875 0.921875 0.578125q0.6562195 0.609375 1.2499695 1.515625l2.0 3.125l-1.90625 0l-1.5155945 -2.390625q-0.671875 -1.03125 -1.109375 -1.578125q-0.421875 -0.546875 -0.765625 -0.765625q-0.328125 -0.21875 -0.6875 -0.296875q-0.25 -0.0625 -0.84375 -0.0625l-1.75 0l0 5.09375l-1.515625 0zm1.515625 -6.40625l3.25 0q1.046875 0 1.625 -0.203125q0.59375 -0.21875 0.8905945 -0.6875q0.3125 -0.484375 0.3125 -1.03125q0 -0.8125 -0.5937195 -1.328125q-0.59375 -0.53125 -1.859375 -0.53125l-3.625 0l0 3.78125zm9.554657 0.828125q0 -2.859375 1.53125 -4.46875q1.53125 -1.609375 3.953125 -1.609375q1.578125 0 2.84375 0.765625q1.28125 0.75 1.953125 2.109375q0.671875 1.34375 0.671875 3.0625q0 1.75 -0.703125 3.125q-0.703125 1.375 -2.0 2.09375q-1.28125 0.703125 -2.78125 0.703125q-1.609375 0 -2.890625 -0.78125q-1.265625 -0.796875 -1.921875 -2.140625q-0.65625 -1.359375 -0.65625 -2.859375zm1.5625 0.015625q0 2.078125 1.109375 3.265625q1.109375 1.1875 2.796875 1.1875q1.703125 0 2.8125 -1.203125q1.109375 -1.203125 1.109375 -3.40625q0 -1.40625 -0.484375 -2.4375q-0.46875 -1.046875 -1.375 -1.625q-0.90625 -0.578125 -2.046875 -0.578125q-1.609375 0 -2.765625 1.109375q-1.15625 1.109375 -1.15625 3.6875zm18.851562 -5.890625l1.515625 0l0 6.609375q0 1.734375 -0.390625 2.75q-0.390625 1.015625 -1.40625 1.65625q-1.015625 0.640625 -2.671875 0.640625q-1.609375 0 -2.640625 -0.5625q-1.015625 -0.5625 -1.453125 -1.609375q-0.4375 -1.046875 -0.4375 -2.875l0 -6.609375l1.515625 0l0 6.609375q0 1.484375 0.265625 2.203125q0.28125 0.703125 0.953125 1.09375q0.6875 0.375 1.65625 0.375q1.671875 0 2.375 -0.75q0.71875 -0.765625 0.71875 -2.921875l0 -6.609375zm4.0234375 11.453125l0 -11.453125l1.5625 0l6.015625 8.984375l0 -8.984375l1.453125 0l0 11.453125l-1.5625 0l-6.015625 -9.0l0 9.0l-1.453125 0zm11.5703125 0l0 -11.453125l3.953125 0q1.328125 0 2.03125 0.15625q0.984375 0.234375 1.6875 0.828125q0.90625 0.765625 1.34375 1.953125q0.453125 1.1875 0.453125 2.71875q0 1.3125 -0.3125 2.328125q-0.296875 1.0 -0.78125 1.65625q-0.46875 0.65625 -1.03125 1.046875q-0.5625 0.375 -1.375 0.578125q-0.796875 0.1875 -1.828125 0.1875l-4.140625 0zm1.515625 -1.359375l2.453125 0q1.125 0 1.765625 -0.203125q0.65625 -0.21875 1.03125 -0.59375q0.546875 -0.546875 0.84375 -1.453125q0.296875 -0.90625 0.296875 -2.203125q0 -1.796875 -0.59375 -2.765625q-0.578125 -0.96875 -1.421875 -1.296875q-0.609375 -0.234375 -1.96875 -0.234375l-2.40625 0l0 8.75zm19.21875 1.359375l-1.40625 0l0 -8.96875q-0.515625 0.484375 -1.34375 0.96875q-0.8125 0.484375 -1.46875 0.734375l0 -1.359375q1.171875 -0.5625 2.046875 -1.34375q0.890625 -0.796875 1.265625 -1.53125l0.90625 0l0 11.5z" fill-rule="nonzero"/><path fill="#000000" fill-opacity="0.0" d="m429.5013 8.501312l0 293.00787" fill-rule="evenodd"/><path stroke="#000000" stroke-width="1.0" stroke-linejoin="round" stroke-linecap="butt" d="m429.5013 8.501312l0 293.00787" fill-rule="evenodd"/><path fill="#000000" fill-opacity="0.0" d="m253.05774 252.17061l-0.50393677 -180.50394" fill-rule="evenodd"/><path stroke="#000000" stroke-width="1.0" stroke-linejoin="round" stroke-linecap="butt" d="m253.05774 252.17061l-0.48718262 -174.50397" fill-rule="evenodd"/><path fill="#000000" stroke="#000000" stroke-width="1.0" stroke-linecap="butt" d="m254.22229 77.66203l-1.6643982 -4.53347l-1.6390686 4.542694z" fill-rule="evenodd"/><path fill="#ffffff" d="m100.96063 210.8202l0 0c0 -2.7744598 2.3055573 -5.0236206 5.149605 -5.0236206l0 0c1.3657608 0 2.675583 0.5292816 3.6413193 1.4713898c0.9657364 0.94210815 1.5082855 2.2198944 1.5082855 3.5522308l0 0c0 2.774475 -2.3055573 5.0236206 -5.149605 5.0236206l0 0c-2.8440475 0 -5.149605 -2.2491455 -5.149605 -5.0236206z" fill-rule="evenodd"/><path stroke="#000000" stroke-width="1.0" stroke-linejoin="round" stroke-linecap="butt" d="m100.96063 210.8202l0 0c0 -2.7744598 2.3055573 -5.0236206 5.149605 -5.0236206l0 0c1.3657608 0 2.675583 0.5292816 3.6413193 1.4713898c0.9657364 0.94210815 1.5082855 2.2198944 1.5082855 3.5522308l0 0c0 2.774475 -2.3055573 5.0236206 -5.149605 5.0236206l0 0c-2.8440475 0 -5.149605 -2.2491455 -5.149605 -5.0236206z" fill-rule="evenodd"/><path fill="#d9d2e9" d="m247.96063 121.82021l0 0c0 -2.774475 2.3055573 -5.023628 5.149597 -5.023628l0 0c1.3657684 0 2.675583 0.529274 3.641327 1.4713898c0.96572876 0.94210815 1.5083008 2.2198868 1.5083008 3.5522385l0 0c0 2.7744675 -2.3055725 5.0236206 -5.1496277 5.0236206l0 0c-2.84404 0 -5.149597 -2.2491531 -5.149597 -5.0236206z" fill-rule="evenodd"/><path stroke="#000000" stroke-width="1.0" stroke-linejoin="round" stroke-linecap="butt" d="m247.96063 121.82021l0 0c0 -2.774475 2.3055573 -5.023628 5.149597 -5.023628l0 0c1.3657684 0 2.675583 0.529274 3.641327 1.4713898c0.96572876 0.94210815 1.5083008 2.2198868 1.5083008 3.5522385l0 0c0 2.7744675 -2.3055725 5.0236206 -5.1496277 5.0236206l0 0c-2.84404 0 -5.149597 -2.2491531 -5.149597 -5.0236206z" fill-rule="evenodd"/><path fill="#d9d2e9" d="m247.96063 210.8202l0 0c0 -2.7744598 2.3055573 -5.0236206 5.149597 -5.0236206l0 0c1.3657684 0 2.675583 0.5292816 3.641327 1.4713898c0.96572876 0.94210815 1.5083008 2.2198944 1.5083008 3.5522308l0 0c0 2.774475 -2.3055725 5.0236206 -5.1496277 5.0236206l0 0c-2.84404 0 -5.149597 -2.2491455 -5.149597 -5.0236206z" fill-rule="evenodd"/><path stroke="#000000" stroke-width="1.0" stroke-linejoin="round" stroke-linecap="butt" d="m247.96063 210.8202l0 0c0 -2.7744598 2.3055573 -5.0236206 5.149597 -5.0236206l0 0c1.3657684 0 2.675583 0.5292816 3.641327 1.4713898c0.96572876 0.94210815 1.5083008 2.2198944 1.5083008 3.5522308l0 0c0 2.774475 -2.3055725 5.0236206 -5.1496277 5.0236206l0 0c-2.84404 0 -5.149597 -2.2491455 -5.149597 -5.0236206z" fill-rule="evenodd"/><path fill="#000000" fill-opacity="0.0" d="m90.64567 219.58661l30.929138 0l0 19.527557l-30.929138 0z" fill-rule="evenodd"/><path fill="#000000" d="m99.8572 236.27039l5.125 -13.359375l1.90625 0l5.46875 13.359375l-2.015625 0l-1.546875 -4.046875l-5.59375 0l-1.46875 4.046875l-1.875 0zm3.859375 -5.484375l4.53125 0l-1.40625 -3.703125q-0.625 -1.6875 -0.9375 -2.765625q-0.265625 1.28125 -0.71875 2.546875l-1.46875 3.921875z" fill-rule="nonzero"/><path fill="#000000" fill-opacity="0.0" d="m212.14436 201.05643l30.929123 0l0 19.527557l-30.929123 0z" fill-rule="evenodd"/><path fill="#000000" d="m222.7465 217.7402l0 -13.359375l5.015625 0q1.53125 0 2.453125 0.40625q0.921875 0.40625 1.4375 1.25q0.53125 0.84375 0.53125 1.765625q0 0.859375 -0.46875 1.625q-0.453125 0.75 -1.390625 1.203125q1.203125 0.359375 1.859375 1.21875q0.65625 0.859375 0.65625 2.015625q0 0.9375 -0.40625 1.75q-0.390625 0.796875 -0.984375 1.234375q-0.578125 0.4375 -1.453125 0.671875q-0.875 0.21875 -2.15625 0.21875l-5.09375 0zm1.78125 -7.75l2.875 0q1.1875 0 1.6875 -0.140625q0.671875 -0.203125 1.015625 -0.671875q0.34375 -0.46875 0.34375 -1.171875q0 -0.65625 -0.328125 -1.15625q-0.3125 -0.515625 -0.90625 -0.703125q-0.59375 -0.1875 -2.03125 -0.1875l-2.65625 0l0 4.03125zm0 6.171875l3.3125 0q0.859375 0 1.203125 -0.0625q0.609375 -0.109375 1.015625 -0.359375q0.421875 -0.265625 0.6875 -0.75q0.265625 -0.484375 0.265625 -1.125q0 -0.75 -0.390625 -1.296875q-0.375 -0.546875 -1.0625 -0.765625q-0.671875 -0.234375 -1.953125 -0.234375l-3.078125 0l0 4.59375z" fill-rule="nonzero"/><path fill="#000000" fill-opacity="0.0" d="m212.14436 112.05643l30.929123 0l0 19.527557l-30.929123 0z" fill-rule="evenodd"/><path fill="#000000" d="m232.11311 124.052704l1.765625 0.453125q-0.5625 2.171875 -2.0 3.328125q-1.4375 1.140625 -3.53125 1.140625q-2.15625 0 -3.515625 -0.875q-1.34375 -0.890625 -2.0625 -2.546875q-0.703125 -1.671875 -0.703125 -3.59375q0 -2.078125 0.796875 -3.625q0.796875 -1.5625 2.265625 -2.359375q1.484375 -0.8125 3.25 -0.8125q2.0 0 3.359375 1.015625q1.375 1.015625 1.90625 2.875l-1.734375 0.40625q-0.46875 -1.453125 -1.359375 -2.109375q-0.875 -0.671875 -2.203125 -0.671875q-1.546875 0 -2.578125 0.734375q-1.03125 0.734375 -1.453125 1.984375q-0.421875 1.234375 -0.421875 2.5625q0 1.703125 0.5 2.96875q0.5 1.265625 1.546875 1.90625q1.046875 0.625 2.265625 0.625q1.484375 0 2.515625 -0.859375q1.03125 -0.859375 1.390625 -2.546875z" fill-rule="nonzero"/><path fill="#000000" fill-opacity="0.0" d="m72.89764 181.02493l66.42519 0l0 19.527557l-66.42519 0z" fill-rule="evenodd"/><path fill="#000000" d="m90.30555 199.83621l0 -14.640625l3.09375 0l0 1.15625l-1.6875 0l0 12.3125l1.6875 0l0 1.171875l-3.09375 0zm4.4140625 -3.1875l0 -8.296875l1.265625 0l0 1.171875q0.90625 -1.359375 2.640625 -1.359375q0.75 0 1.375 0.265625q0.625 0.265625 0.9375 0.703125q0.3125 0.4375 0.4375 1.046875q0.078125 0.390625 0.078125 1.359375l0 5.109375l-1.40625 0l0 -5.046875q0 -0.859375 -0.171875 -1.28125q-0.15625 -0.4375 -0.578125 -0.6875q-0.40625 -0.25 -0.96875 -0.25q-0.90625 0 -1.5625 0.578125q-0.640625 0.5625 -0.640625 2.15625l0 4.53125l-1.40625 0zm14.3359375 0l0 -1.21875q-0.96875 1.40625 -2.640625 1.40625q-0.734375 0 -1.375 -0.28125q-0.625 -0.28125 -0.9375 -0.703125q-0.3125 -0.4375 -0.4375 -1.046875q-0.078125 -0.421875 -0.078125 -1.3125l0 -5.140625l1.40625 0l0 4.59375q0 1.109375 0.078125 1.484375q0.140625 0.5625 0.5625 0.875q0.4375 0.3125 1.0625 0.3125q0.640625 0 1.1875 -0.3125q0.5625 -0.328125 0.78125 -0.890625q0.234375 -0.5625 0.234375 -1.625l0 -4.4375l1.40625 0l0 8.296875l-1.25 0zm3.4296875 0l0 -11.453125l1.40625 0l0 11.453125l-1.40625 0zm3.5546875 0l0 -11.453125l1.40625 0l0 11.453125l-1.40625 0zm5.9296875 3.1875l-3.09375 0l0 -1.171875l1.6875 0l0 -12.3125l-1.6875 0l0 -1.15625l3.09375 0l0 14.640625z" fill-rule="nonzero"/><path fill="#000000" fill-opacity="0.0" d="m252.5538 112.38845l112.346466 0l0 19.527565l-112.346466 0z" fill-rule="evenodd"/><path fill="#000000" d="m267.145 131.19974l0 -14.640633l3.09375 0l0 1.15625l-1.6875 0l0 12.312508l1.6875 0l0 1.171875l-3.09375 0zm7.5078125 -3.1875l0 -10.109383l-3.78125 0l0 -1.34375l9.078125 0l0 1.34375l-3.78125 0l0 10.109383l-1.515625 0zm6.6640625 0l0 -8.296883l1.265625 0l0 1.25q0.484375 -0.875 0.890625 -1.15625q0.40625 -0.28125 0.90625 -0.28125q0.703125 0 1.4375 0.453125l-0.484375 1.296875q-0.515625 -0.296875 -1.03125 -0.296875q-0.453125 0 -0.828125 0.28125q-0.359375 0.265625 -0.515625 0.765625q-0.234375 0.75 -0.234375 1.640625l0 4.3437576l-1.40625 0zm5.34375 -9.843758l0 -1.609375l1.40625 0l0 1.609375l-1.40625 0zm0 9.843758l0 -8.296883l1.40625 0l0 8.296883l-1.40625 0zm3.5546875 3.1875l0 -11.484383l1.28125 0l0 1.078125q0.453125 -0.640625 1.015625 -0.953125q0.578125 -0.3125 1.390625 -0.3125q1.0625 0 1.875 0.546875q0.8125 0.546875 1.21875 1.546875q0.421875 0.984375 0.421875 2.171875q0 1.28125 -0.46875 2.296875q-0.453125 1.015625 -1.328125 1.5625q-0.859375 0.5468826 -1.828125 0.5468826q-0.703125 0 -1.265625 -0.29688263q-0.546875 -0.296875 -0.90625 -0.75l0 4.0468826l-1.40625 0zm1.265625 -7.2968826q0 1.609375 0.640625 2.375q0.65625 0.765625 1.578125 0.765625q0.9375 0 1.609375 -0.796875q0.671875 -0.796875 0.671875 -2.453125q0 -1.59375 -0.65625 -2.375q-0.65625 -0.796875 -1.5625 -0.796875q-0.890625 0 -1.59375 0.84375q-0.6875 0.84375 -0.6875 2.4375zm7.2421875 1.078125l1.40625 -0.1875q0.25 1.203125 0.828125 1.734375q0.578125 0.515625 1.421875 0.515625q0.984375 0 1.671875 -0.6875q0.6875 -0.6875 0.6875 -1.703125q0 -0.96875 -0.640625 -1.59375q-0.625 -0.625 -1.609375 -0.625q-0.390625 0 -0.984375 0.15625l0.15625 -1.234375q0.140625 0.015625 0.21875 0.015625q0.90625 0 1.625 -0.46875q0.71875 -0.46875 0.71875 -1.453125q0 -0.765625 -0.53125 -1.265625q-0.515625 -0.515625 -1.34375 -0.515625q-0.828125 0 -1.375 0.515625q-0.546875 0.515625 -0.703125 1.546875l-1.40625 -0.25q0.265625 -1.421875 1.171875 -2.1875q0.921875 -0.78125 2.28125 -0.78125q0.9375 0 1.71875 0.40625q0.796875 0.390625 1.203125 1.09375q0.421875 0.6875 0.421875 1.46875q0 0.75 -0.40625 1.359375q-0.390625 0.609375 -1.171875 0.96875q1.015625 0.234375 1.578125 0.96875q0.5625 0.734375 0.5625 1.84375q0 1.5 -1.09375 2.546875q-1.09375 1.0468826 -2.765625 1.0468826q-1.5 0 -2.5 -0.8906326q-1.0 -0.90625 -1.140625 -2.34375zm9.6484375 3.0312576l0 -1.6093826l1.609375 0l0 1.6093826q0 0.890625 -0.3125 1.421875q-0.3125 0.546875 -1.0 0.84375l-0.390625 -0.59375q0.453125 -0.203125 0.65625 -0.578125q0.21875 -0.375 0.234375 -1.09375l-0.796875 0zm8.6406555 0l0 -11.453133l4.296875 0q1.3125 0 2.109375 0.34375q0.796875 0.34375 1.234375 1.078125q0.453125 0.71875 0.453125 1.5q0 0.734375 -0.40625 1.390625q-0.390625 0.640625 -1.1875 1.046875q1.03125 0.296875 1.59375 1.03125q0.5625 0.734375 0.5625 1.734375q0 0.8125 -0.34375 1.5q-0.34375 0.6875 -0.84375 1.0625q-0.5 0.375 -1.25 0.578125q-0.75 0.18750763 -1.84375 0.18750763l-4.375 0zm1.515625 -6.6406326l2.484375 0q1.0 0 1.4375 -0.140625q0.578125 -0.171875 0.875 -0.5625q0.296875 -0.40625 0.296875 -1.0q0 -0.578125 -0.28125 -1.0q-0.265625 -0.4375 -0.78125 -0.59375q-0.5 -0.171875 -1.734375 -0.171875l-2.296875 0l0 3.46875zm0 5.28125l2.859375 0q0.734375 0 1.03125 -0.046875q0.515625 -0.09375 0.859375 -0.3125q0.359375 -0.21875 0.578125 -0.640625q0.234375 -0.421875 0.234375 -0.96875q0 -0.640625 -0.328125 -1.109375q-0.328125 -0.46875 -0.90625 -0.65625q-0.578125 -0.203125 -1.671875 -0.203125l-2.65625 0l0 3.9375zm9.40625 1.3593826l0 -1.6093826l1.609375 0l0 1.6093826q0 0.890625 -0.3125 1.421875q-0.3125 0.546875 -1.0 0.84375l-0.390625 -0.59375q0.453125 -0.203125 0.65625 -0.578125q0.21875 -0.375 0.234375 -1.09375l-0.796875 0zm16.875 -4.0156326l1.515625 0.375q-0.46875 1.875 -1.71875 2.859375q-1.234375 0.9843826 -3.015625 0.9843826q-1.859375 0 -3.015625 -0.7500076q-1.15625 -0.765625 -1.765625 -2.1875q-0.609375 -1.4375 -0.609375 -3.078125q0 -1.796875 0.6875 -3.125q0.6875 -1.328125 1.9375 -2.015625q1.265625 -0.703125 2.78125 -0.703125q1.71875 0 2.890625 0.875q1.171875 0.875 1.640625 2.46875l-1.5 0.34375q-0.390625 -1.25 -1.15625 -1.8125q-0.75 -0.578125 -1.90625 -0.578125q-1.3125 0 -2.203125 0.640625q-0.890625 0.625 -1.25 1.703125q-0.359375 1.0625 -0.359375 2.1875q0 1.46875 0.421875 2.5625q0.4375 1.078125 1.328125 1.625q0.90625 0.53125 1.953125 0.53125q1.265625 0 2.140625 -0.734375q0.890625 -0.734375 1.203125 -2.171875zm5.5546875 7.2031326l-3.09375 0l0 -1.171875l1.6875 0l0 -12.312508l-1.6875 0l0 -1.15625l3.09375 0l0 14.640633z" fill-rule="nonzero"/><path fill="#000000" fill-opacity="0.0" d="m252.5538 201.05643l66.4252 0l0 19.527557l-66.4252 0z" fill-rule="evenodd"/><path fill="#000000" d="m269.96173 219.8677l0 -14.640625l3.09375 0l0 1.15625l-1.6875 0l0 12.3125l1.6875 0l0 1.171875l-3.09375 0zm4.4140625 -3.1875l0 -8.296875l1.265625 0l0 1.171875q0.90625 -1.359375 2.640625 -1.359375q0.75 0 1.375 0.265625q0.625 0.265625 0.9375 0.703125q0.3125 0.4375 0.4375 1.046875q0.078125 0.390625 0.078125 1.359375l0 5.109375l-1.40625 0l0 -5.046875q0 -0.859375 -0.171875 -1.28125q-0.15625 -0.4375 -0.578125 -0.6875q-0.40625 -0.25 -0.96875 -0.25q-0.90625 0 -1.5625 0.578125q-0.640625 0.5625 -0.640625 2.15625l0 4.53125l-1.40625 0zm14.3359375 0l0 -1.21875q-0.96875 1.40625 -2.640625 1.40625q-0.734375 0 -1.375 -0.28125q-0.625 -0.28125 -0.9375 -0.703125q-0.3125 -0.4375 -0.4375 -1.046875q-0.078125 -0.421875 -0.078125 -1.3125l0 -5.140625l1.40625 0l0 4.59375q0 1.109375 0.078125 1.484375q0.140625 0.5625 0.5625 0.875q0.4375 0.3125 1.0625 0.3125q0.640625 0 1.1875 -0.3125q0.5625 -0.328125 0.78125 -0.890625q0.234375 -0.5625 0.234375 -1.625l0 -4.4375l1.40625 0l0 8.296875l-1.25 0zm3.4296875 0l0 -11.453125l1.40625 0l0 11.453125l-1.40625 0zm3.5546875 0l0 -11.453125l1.40625 0l0 11.453125l-1.40625 0zm5.9296875 3.1875l-3.09375 0l0 -1.171875l1.6875 0l0 -12.3125l-1.6875 0l0 -1.15625l3.09375 0l0 14.640625z" fill-rule="nonzero"/><path fill="#000000" fill-opacity="0.0" d="m42.55643 31.024935l95.14961 0l0 19.52756l-95.14961 0z" fill-rule="evenodd"/><path fill="#000000" d="m55.392952 46.648712l0 -11.453125l5.078125 0q1.53125 0 2.328125 0.3125q0.796875 0.296875 1.265625 1.078125q0.484375 0.78125 0.484375 1.734375q0 1.21875 -0.796875 2.0625q-0.78125 0.828125 -2.4375 1.046875q0.609375 0.296875 0.921875 0.578125q0.65625 0.609375 1.25 1.515625l2.0 3.125l-1.90625 0l-1.515625 -2.390625q-0.671875 -1.03125 -1.109375 -1.578125q-0.421875 -0.546875 -0.765625 -0.765625q-0.328125 -0.21875 -0.6875 -0.296875q-0.25 -0.0625 -0.84375 -0.0625l-1.75 0l0 5.09375l-1.515625 0zm1.515625 -6.40625l3.25 0q1.046875 0 1.625 -0.203125q0.59375 -0.21875 0.890625 -0.6875q0.3125 -0.484375 0.3125 -1.03125q0 -0.8125 -0.59375 -1.328125q-0.59375 -0.53125 -1.859375 -0.53125l-3.625 0l0 3.78125zm9.5546875 0.828125q0 -2.859375 1.53125 -4.46875q1.53125 -1.609375 3.953125 -1.609375q1.578125 0 2.84375 0.765625q1.28125 0.75 1.953125 2.109375q0.671875 1.34375 0.671875 3.0625q0 1.75 -0.703125 3.125q-0.703125 1.375 -2.0 2.09375q-1.28125 0.703125 -2.78125 0.703125q-1.609375 0 -2.890625 -0.78125q-1.265625 -0.796875 -1.921875 -2.140625q-0.65625 -1.359375 -0.65625 -2.859375zm1.5625 0.015625q0 2.078125 1.109375 3.265625q1.109375 1.1875 2.796875 1.1875q1.703125 0 2.8125 -1.203125q1.109375 -1.203125 1.109375 -3.40625q0 -1.40625 -0.484375 -2.4375q-0.46875 -1.046875 -1.375 -1.625q-0.90625 -0.578125 -2.046875 -0.578125q-1.609375 0 -2.765625 1.109375q-1.15625 1.109375 -1.15625 3.6875zm18.851562 -5.890625l1.515625 0l0 6.609375q0 1.734375 -0.390625 2.75q-0.390625 1.015625 -1.40625 1.65625q-1.015625 0.640625 -2.671875 0.640625q-1.609375 0 -2.640625 -0.5625q-1.015625 -0.5625 -1.453125 -1.609375q-0.4375 -1.046875 -0.4375 -2.875l0 -6.609375l1.515625 0l0 6.609375q0 1.484375 0.265625 2.203125q0.28125 0.703125 0.953125 1.09375q0.6875 0.375 1.65625 0.375q1.671875 0 2.375 -0.75q0.71875 -0.765625 0.71875 -2.921875l0 -6.609375zm4.0234375 11.453125l0 -11.453125l1.5625 0l6.015625 8.984375l0 -8.984375l1.453125 0l0 11.453125l-1.5625 0l-6.015625 -9.0l0 9.0l-1.453125 0zm11.5703125 0l0 -11.453125l3.953125 0q1.3281174 0 2.0312424 0.15625q0.984375 0.234375 1.6875 0.828125q0.90625 0.765625 1.34375 1.953125q0.453125 1.1875 0.453125 2.71875q0 1.3125 -0.3125 2.328125q-0.296875 1.0 -0.78125 1.65625q-0.46875 0.65625 -1.03125 1.046875q-0.5625 0.375 -1.375 0.578125q-0.796875 0.1875 -1.828125 0.1875l-4.1406174 0zm1.515625 -1.359375l2.453125 0q1.1249924 0 1.7656174 -0.203125q0.65625 -0.21875 1.03125 -0.59375q0.546875 -0.546875 0.84375 -1.453125q0.296875 -0.90625 0.296875 -2.203125q0 -1.796875 -0.59375 -2.765625q-0.578125 -0.96875 -1.421875 -1.296875q-0.609375 -0.234375 -1.9687424 -0.234375l-2.40625 0l0 8.75zm21.312492 0l0 1.359375l-7.578125 0q-0.015625 -0.515625 0.171875 -0.984375q0.28125 -0.765625 0.921875 -1.515625q0.640625 -0.75 1.84375 -1.734375q1.859375 -1.53125 2.515625 -2.421875q0.65625 -0.90625 0.65625 -1.703125q0 -0.828125 -0.59375 -1.40625q-0.59375 -0.578125 -1.5625 -0.578125q-1.015625 0 -1.625 0.609375q-0.609375 0.609375 -0.609375 1.6875l-1.453125 -0.140625q0.15625 -1.625 1.125 -2.46875q0.96875 -0.84375 2.59375 -0.84375q1.65625 0 2.609375 0.921875q0.96875 0.90625 0.96875 2.25q0 0.6875 -0.28125 1.359375q-0.28125 0.65625 -0.9375 1.390625q-0.65625 0.734375 -2.171875 2.015625q-1.265625 1.0625 -1.625 1.453125q-0.359375 0.375 -0.59375 0.75l5.625 0z" fill-rule="nonzero"/></g></svg>