<?xml version="1.0" encoding="UTF-8" standalone="no"?>
<svg
   xmlns:dc="http://purl.org/dc/elements/1.1/"
   xmlns:cc="http://creativecommons.org/ns#"
   xmlns:rdf="http://www.w3.org/1999/02/22-rdf-syntax-ns#"
   xmlns:svg="http://www.w3.org/2000/svg"
   xmlns="http://www.w3.org/2000/svg"
   xmlns:sodipodi="http://sodipodi.sourceforge.net/DTD/sodipodi-0.dtd"
   xmlns:inkscape="http://www.inkscape.org/namespaces/inkscape"
   viewBox="0 0 58.2 67.2"
   version="1.1"
   id="svg106">
  <metadata
     id="metadata112">
    <rdf:RDF>
      <cc:Work
         rdf:about="">
        <dc:format>image/svg+xml</dc:format>
        <dc:type
           rdf:resource="http://purl.org/dc/dcmitype/StillImage" />
        <dc:title>Asset 1</dc:title>
      </cc:Work>
    </rdf:RDF>
  </metadata>
  <defs
     id="defs110" />
  <sodipodi:namedview
     pagecolor="#ffffff"
     bordercolor="#666666"
     borderopacity="1"
     objecttolerance="10"
     gridtolerance="10"
     guidetolerance="10"
     inkscape:pageopacity="0"
     inkscape:pageshadow="2"
     id="namedview108"
     showgrid="false"
     inkscape:zoom="4.4964414"
     inkscape:cx="128.56177"
     inkscape:cy="27.741251"
     inkscape:window-x="0"
     inkscape:window-y="0"
     inkscape:window-maximized="0"
     inkscape:current-layer="svg106" />
  <title
     id="title2">Asset 1</title>
  <path
     d="M 29.1,67.2 0,50.4 V 16.8 L 29.1,0 58.19,16.8 V 50.4 Z M 2,49.24 29.1,64.89 56.19,49.24 V 18 L 29.1,2.31 2,18 Z"
     id="path4"
     inkscape:connector-curvature="0"
     style="fill:#ffffff" />
  <path
     d="m 43.09,16 a 0.5,0.5 0 0 1 -0.5,-0.5 V 9.81 L 37.64,7 A 0.51,0.51 0 0 1 37.46,6.31 0.49,0.49 0 0 1 38.14,6.13 l 5.45,3.14 v 6.29 A 0.5,0.5 0 0 1 43.09,16 Z"
     id="path34"
     inkscape:connector-curvature="0"
     style="fill:#ffffff" />
  <path
     d="M 23.89,4.94 A 0.5,0.5 0 0 1 23.64,4 L 29.09,0.86 34.53,4 a 0.5,0.5 0 0 1 -0.5,0.86 L 29.09,2 24.14,4.87 a 0.45,0.45 0 0 1 -0.25,0.07 z"
     id="path36"
     inkscape:connector-curvature="0"
     style="fill:#ffffff" />
  <path
     d="m 15.09,16 a 0.5,0.5 0 0 1 -0.5,-0.5 V 9.23 L 20,6.09 a 0.49,0.49 0 0 1 0.68,0.18 0.51,0.51 0 0 1 -0.18,0.69 l -4.91,2.85 v 5.71 A 0.5,0.5 0 0 1 15.09,16 Z"
     id="path38"
     inkscape:connector-curvature="0"
     style="fill:#ffffff" />
  <path
     d="M 20.28,29.19 A 0.47,0.47 0 0 1 20.03,29.12 L 14.59,26 v -6.31 a 0.5,0.5 0 0 1 0.5,-0.5 0.5,0.5 0 0 1 0.5,0.5 v 5.71 l 4.94,2.85 a 0.51,0.51 0 0 1 0.18,0.69 0.48,0.48 0 0 1 -0.43,0.25 z"
     id="path40"
     inkscape:connector-curvature="0"
     style="fill:#ffffff" />
  <path
     d="M 29.09,34.35 23.64,31.2 a 0.5,0.5 0 1 1 0.5,-0.86 l 4.95,2.85 4.91,-2.85 a 0.5,0.5 0 1 1 0.5,0.86 z"
     id="path42"
     inkscape:connector-curvature="0"
     style="fill:#ffffff" />
  <path
     d="m 37.89,29.19 a 0.5,0.5 0 0 1 -0.43,-0.25 0.51,0.51 0 0 1 0.18,-0.69 l 5,-2.85 v -5.71 a 0.5,0.5 0 0 1 0.5,-0.5 0.5,0.5 0 0 1 0.5,0.5 V 26 l -5.45,3.14 a 0.47,0.47 0 0 1 -0.3,0.05 z"
     id="path44"
     inkscape:connector-curvature="0"
     style="fill:#ffffff" />
  <path
     d="M 20.28,13 A 0.47,0.47 0 0 1 20,13 l -5.19,-3 a 0.50172203,0.50172203 0 1 1 0.5,-0.87 l 5.19,3 a 0.49,0.49 0 0 1 0.18,0.68 0.48,0.48 0 0 1 -0.4,0.19 z"
     id="path46"
     inkscape:connector-curvature="0"
     style="fill:#ffffff" />
  <path
     d="m 29.09,18.1 a 0.54,0.54 0 0 1 -0.25,-0.06 l -5.2,-3 a 0.51,0.51 0 0 1 -0.18,-0.69 0.49,0.49 0 0 1 0.68,-0.18 l 5.2,3 a 0.5,0.5 0 0 1 -0.25,0.93 z"
     id="path48"
     inkscape:connector-curvature="0"
     style="fill:#ffffff" />
  <path
     d="m 29.09,18.1 a 0.51,0.51 0 0 1 -0.44,-0.25 0.5,0.5 0 0 1 0.19,-0.68 l 5.19,-3 a 0.49,0.49 0 0 1 0.68,0.18 0.51,0.51 0 0 1 -0.18,0.69 l -5.19,3 a 0.57,0.57 0 0 1 -0.25,0.06 z"
     id="path50"
     inkscape:connector-curvature="0"
     style="fill:#ffffff" />
  <path
     d="m 37.89,13 a 0.5,0.5 0 0 1 -0.25,-0.93 l 5.2,-3 a 0.5,0.5 0 1 1 0.5,0.86 l -5.2,3 A 0.45,0.45 0 0 1 37.89,13 Z"
     id="path52"
     inkscape:connector-curvature="0"
     style="fill:#ffffff" />
  <path
     d="m 29.09,24.1 a 0.5,0.5 0 0 1 -0.5,-0.5 v -6 a 0.5,0.5 0 0 1 0.5,-0.5 0.51,0.51 0 0 1 0.5,0.5 v 6 a 0.5,0.5 0 0 1 -0.5,0.5 z"
     id="path54"
     inkscape:connector-curvature="0"
     style="fill:#ffffff" />
  <path
     d="m 29.09,34.27 a 0.5,0.5 0 0 1 -0.5,-0.5 v -6 a 0.5,0.5 0 0 1 0.5,-0.5 0.5,0.5 0 0 1 0.5,0.5 v 6 a 0.51,0.51 0 0 1 -0.5,0.5 z"
     id="path56"
     inkscape:connector-curvature="0"
     style="fill:#ffffff" />
  <path
     d="m 57.09,40.27 a 0.5,0.5 0 0 1 -0.5,-0.5 v -5.71 l -5,-2.86 a 0.5,0.5 0 0 1 0.5,-0.86 l 5.45,3.14 v 6.29 a 0.5,0.5 0 0 1 -0.45,0.5 z"
     id="path58"
     inkscape:connector-curvature="0"
     style="fill:#ffffff" />
  <path
     d="m 37.89,29.19 a 0.5,0.5 0 0 1 -0.43,-0.25 0.51,0.51 0 0 1 0.18,-0.69 l 5.45,-3.14 5.44,3.14 a 0.51,0.51 0 0 1 0.18,0.69 0.49,0.49 0 0 1 -0.68,0.18 l -4.94,-2.86 -5,2.86 a 0.45,0.45 0 0 1 -0.2,0.07 z"
     id="path60"
     inkscape:connector-curvature="0"
     style="fill:#ffffff" />
  <path
     d="m 29.09,40.27 a 0.5,0.5 0 0 1 -0.5,-0.5 V 33.48 L 34,30.34 a 0.5,0.5 0 1 1 0.5,0.86 l -4.94,2.86 v 5.71 a 0.5,0.5 0 0 1 -0.47,0.5 z"
     id="path62"
     inkscape:connector-curvature="0"
     style="fill:#ffffff" />
  <path
     d="m 34.28,53.44 a 0.59,0.59 0 0 1 -0.25,-0.07 l -5.44,-3.14 v -6.29 a 0.5,0.5 0 0 1 0.5,-0.5 0.5,0.5 0 0 1 0.5,0.5 v 5.71 l 4.94,2.85 a 0.51,0.51 0 0 1 0.18,0.69 0.48,0.48 0 0 1 -0.43,0.25 z"
     id="path64"
     inkscape:connector-curvature="0"
     style="fill:#ffffff" />
  <path
     d="m 43.09,58.59 -5.45,-3.14 a 0.49,0.49 0 0 1 -0.18,-0.68 0.5,0.5 0 0 1 0.68,-0.19 l 5,2.86 4.86,-2.86 a 0.5,0.5 0 0 1 0.68,0.19 0.49,0.49 0 0 1 -0.18,0.68 z"
     id="path66"
     inkscape:connector-curvature="0"
     style="fill:#ffffff" />
  <path
     d="m 51.89,53.44 a 0.5,0.5 0 0 1 -0.43,-0.25 0.51,0.51 0 0 1 0.18,-0.69 l 5,-2.85 v -5.71 a 0.5,0.5 0 0 1 0.5,-0.5 0.5,0.5 0 0 1 0.5,0.5 v 6.29 l -5.45,3.14 a 0.59,0.59 0 0 1 -0.3,0.07 z"
     id="path68"
     inkscape:connector-curvature="0"
     style="fill:#ffffff" />
  <path
     d="M 34.28,37.27 A 0.47,0.47 0 0 1 34,37.2 l -5.19,-3 a 0.49,0.49 0 0 1 -0.19,-0.68 0.51,0.51 0 0 1 0.69,-0.18 l 5.19,3 a 0.5,0.5 0 0 1 -0.25,0.93 z"
     id="path70"
     inkscape:connector-curvature="0"
     style="fill:#ffffff" />
  <path
     d="m 43.09,42.35 a 0.45,0.45 0 0 1 -0.25,-0.07 l -5.2,-3 a 0.51,0.51 0 0 1 -0.18,-0.69 0.49,0.49 0 0 1 0.68,-0.18 l 5.2,3 a 0.5,0.5 0 0 1 -0.25,0.93 z"
     id="path72"
     inkscape:connector-curvature="0"
     style="fill:#ffffff" />
  <path
     d="m 43.09,42.35 a 0.51,0.51 0 0 1 -0.44,-0.25 0.5,0.5 0 0 1 0.19,-0.68 l 5.19,-3 a 0.5,0.5 0 1 1 0.5,0.86 l -5.19,3 a 0.47,0.47 0 0 1 -0.25,0.07 z"
     id="path74"
     inkscape:connector-curvature="0"
     style="fill:#ffffff" />
  <path
     d="m 51.89,37.27 a 0.5,0.5 0 0 1 -0.43,-0.25 0.51,0.51 0 0 1 0.18,-0.69 l 5.2,-3 a 0.5,0.5 0 0 1 0.68,0.19 0.49,0.49 0 0 1 -0.18,0.68 l -5.2,3 a 0.45,0.45 0 0 1 -0.25,0.07 z"
     id="path76"
     inkscape:connector-curvature="0"
     style="fill:#ffffff" />
  <path
     d="m 43.09,48.35 a 0.5,0.5 0 0 1 -0.5,-0.5 v -6 a 0.5,0.5 0 0 1 0.5,-0.5 0.51,0.51 0 0 1 0.5,0.5 v 6 a 0.5,0.5 0 0 1 -0.5,0.5 z"
     id="path78"
     inkscape:connector-curvature="0"
     style="fill:#ffffff" />
  <path
     d="m 43.09,58.52 a 0.5,0.5 0 0 1 -0.5,-0.5 V 52 a 0.5,0.5 0 0 1 0.5,-0.5 0.5,0.5 0 0 1 0.5,0.5 v 6 a 0.51,0.51 0 0 1 -0.5,0.52 z"
     id="path80"
     inkscape:connector-curvature="0"
     style="fill:#ffffff" />
  <path
     d="m 29.09,40.27 a 0.5,0.5 0 0 1 -0.5,-0.5 V 34.06 L 23.64,31.2 a 0.5,0.5 0 1 1 0.5,-0.86 l 5.45,3.14 v 6.29 a 0.5,0.5 0 0 1 -0.5,0.5 z"
     id="path82"
     inkscape:connector-curvature="0"
     style="fill:#ffffff" />
  <path
     d="M 9.89,29.19 A 0.5,0.5 0 0 1 9.46,28.94 0.51,0.51 0 0 1 9.64,28.25 l 5.45,-3.14 5.44,3.14 a 0.51,0.51 0 0 1 0.18,0.69 0.49,0.49 0 0 1 -0.68,0.18 l -4.94,-2.86 -4.95,2.86 a 0.45,0.45 0 0 1 -0.25,0.07 z"
     id="path84"
     inkscape:connector-curvature="0"
     style="fill:#ffffff" />
  <path
     d="m 1.09,40.27 a 0.5,0.5 0 0 1 -0.5,-0.5 V 33.48 L 6,30.34 a 0.5,0.5 0 0 1 0.5,0.86 l -4.91,2.86 v 5.71 a 0.5,0.5 0 0 1 -0.5,0.5 z"
     id="path86"
     inkscape:connector-curvature="0"
     style="fill:#ffffff" />
  <path
     d="M 6.28,53.44 A 0.59,0.59 0 0 1 6,53.37 L 0.59,50.23 v -6.29 a 0.5,0.5 0 0 1 0.5,-0.5 0.5,0.5 0 0 1 0.5,0.5 v 5.71 l 4.94,2.85 a 0.52,0.52 0 0 1 0.19,0.69 0.51,0.51 0 0 1 -0.44,0.25 z"
     id="path88"
     inkscape:connector-curvature="0"
     style="fill:#ffffff" />
  <path
     d="M 15.09,58.59 9.64,55.45 a 0.49,0.49 0 0 1 -0.18,-0.68 0.5,0.5 0 0 1 0.68,-0.19 l 4.95,2.86 4.91,-2.86 a 0.5,0.5 0 0 1 0.68,0.19 0.49,0.49 0 0 1 -0.18,0.68 z"
     id="path90"
     inkscape:connector-curvature="0"
     style="fill:#ffffff" />
  <path
     d="m 23.89,53.44 a 0.5,0.5 0 0 1 -0.43,-0.25 0.51,0.51 0 0 1 0.18,-0.69 l 4.95,-2.85 v -5.71 a 0.5,0.5 0 0 1 0.5,-0.5 0.5,0.5 0 0 1 0.5,0.5 v 6.29 l -5.45,3.14 a 0.59,0.59 0 0 1 -0.25,0.07 z"
     id="path92"
     inkscape:connector-curvature="0"
     style="fill:#ffffff" />
  <path
     d="M 6.28,37.27 A 0.47,0.47 0 0 1 6,37.2 l -5.19,-3 A 0.49,0.49 0 0 1 0.62,33.52 0.51,0.51 0 0 1 1.31,33.34 l 5.19,3 a 0.51,0.51 0 0 1 0.19,0.68 0.51,0.51 0 0 1 -0.41,0.25 z"
     id="path94"
     inkscape:connector-curvature="0"
     style="fill:#ffffff" />
  <path
     d="m 15.09,42.35 a 0.45,0.45 0 0 1 -0.25,-0.07 l -5.2,-3 a 0.51,0.51 0 0 1 -0.18,-0.69 0.49,0.49 0 0 1 0.68,-0.18 l 5.2,3 a 0.5,0.5 0 0 1 -0.25,0.93 z"
     id="path96"
     inkscape:connector-curvature="0"
     style="fill:#ffffff" />
  <path
     d="m 15.09,42.35 a 0.51,0.51 0 0 1 -0.44,-0.25 0.5,0.5 0 0 1 0.19,-0.68 l 5.19,-3 a 0.5,0.5 0 0 1 0.5,0.86 l -5.19,3 a 0.47,0.47 0 0 1 -0.25,0.07 z"
     id="path98"
     inkscape:connector-curvature="0"
     style="fill:#ffffff" />
  <path
     d="m 23.89,37.27 a 0.5,0.5 0 0 1 -0.43,-0.25 0.51,0.51 0 0 1 0.18,-0.69 l 5.2,-3 a 0.5,0.5 0 0 1 0.68,0.19 0.49,0.49 0 0 1 -0.18,0.68 l -5.2,3 a 0.45,0.45 0 0 1 -0.25,0.07 z"
     id="path100"
     inkscape:connector-curvature="0"
     style="fill:#ffffff" />
  <path
     d="m 15.09,48.35 a 0.5,0.5 0 0 1 -0.5,-0.5 v -6 a 0.5,0.5 0 0 1 0.5,-0.5 0.51,0.51 0 0 1 0.5,0.5 v 6 a 0.5,0.5 0 0 1 -0.5,0.5 z"
     id="path102"
     inkscape:connector-curvature="0"
     style="fill:#ffffff" />
  <path
     d="m 15.09,58.52 a 0.5,0.5 0 0 1 -0.5,-0.5 V 52 a 0.5,0.5 0 0 1 0.5,-0.5 0.5,0.5 0 0 1 0.5,0.5 v 6 a 0.51,0.51 0 0 1 -0.5,0.52 z"
     id="path104"
     inkscape:connector-curvature="0"
     style="fill:#ffffff" />
</svg>
